# xmcd
#
# Track frame offsets: 
#        150
#        9355
#        19658
#        33188
#        47378
#        61141
#        85584
#        114602
#        129398
#        150994
#        170797
#        205630
#        221730
#        245044
#        258599
#        276094
#
# Disc length: 3861 seconds
#
# Revision: 0
# Processed by: cddbd v1.5.2PL0 Copyright (c) Steve Scherf et al.
# Submitted via: ExactAudioCopy v0.99pb5
#
DISCID=cd0f1310
DTITLE=Various Artist - The Blues CD6 - UK Bluesplayers - 2
DYEAR=2009
DGENRE=Blues
TTITLE0=Mick Abrahams Band - Up And Down (Part 1)
TTITLE1=Mick Abrahams Band - Up And Down (Part 2)
TTITLE2=Gary Moore  - The Stumble
TTITLE3=Climax Blues Band - Rollin' Home
TTITLE4=Long John Baldry - Everyday I Have The Blues
TTITLE5=Fleetwood Mac - Worried Dream
TTITLE6=Jeff Beck - Brush With The Blues (Live)
TTITLE7=Matt Schofield - Can't Put You Down
TTITLE8=Jeremy Spencer - Bleeding Heart
TTITLE9=Hokie Joint - Franklin
TTITLE10=Peter Green - A Fool No More
TTITLE11=Chicken Shack - Going Down
TTITLE12=Ian Siegal - Groundhog Blues
TTITLE13=Duster Bennett - The Rolling Stone
TTITLE14=Blues Band - I'm Not Ashamed To Sing The Blues (Live)
TTITLE15=Graham Bond Organisation - The Night Time Is The Right Time
EXTD=
EXTT0=
EXTT1=
EXTT2=
EXTT3=
EXTT4=
EXTT5=
EXTT6=
EXTT7=
EXTT8=
EXTT9=
EXTT10=
EXTT11=
EXTT12=
EXTT13=
EXTT14=
EXTT15=
PLAYORDER=
